<?xml version="1.0" encoding="UTF-8"?>
<!DOCTYPE svg PUBLIC "-//W3C//DTD SVG 1.1//EN" "http://www.w3.org/Graphics/SVG/1.1/DTD/svg11.dtd">
<!-- Creator: CorelDRAW X6 -->
<svg xmlns="http://www.w3.org/2000/svg" xml:space="preserve" width="120px" height="120px" version="1.1" style="shape-rendering:geometricPrecision; text-rendering:geometricPrecision; image-rendering:optimizeQuality; fill-rule:evenodd; clip-rule:evenodd"
viewBox="0 0 12000000 12000000"
 xmlns:xlink="http://www.w3.org/1999/xlink">
 <defs>
  <style type="text/css">
   <![CDATA[
    .fil0 {fill:#292929}
    .fil1 {fill:#FFBF00}
    .fil2 {fill:#292929;fill-rule:nonzero}
   ]]>
  </style>
 </defs>
 <g id="Слой_x0020_1">
  <metadata id="CorelCorpID_0Corel-Layer"/>
  <g id="_404846832">
   <g>
    <path class="fil0" d="M9696560 9638874c-575350,607269 -1306719,1083207 -2158817,1358537 -852068,275387 -1723640,317481 -2545519,161745l4704336 -1520282z"/>
    <path class="fil0" d="M10617766 8292499c-149472,315610 -330663,615970 -540937,895920l-5656582 1828013c-334348,-103919 -657073,-241485 -962961,-409892l7160480 -2314041z"/>
    <path class="fil0" d="M2202130 2525649c575350,-607268 1306719,-1083207 2158816,-1358537 852069,-275386 1723640,-317481 2545520,-161745l-4704336 1520282z"/>
    <path class="fil0" d="M1280924 3872025c149471,-315611 330662,-615971 540937,-895921l5656581 -1828012c334348,103918 657073,241484 962961,409891l-7160479 2314042z"/>
    <path class="fil1" d="M10864494 4493863c332278,1028129 324851,2084435 40082,3047821l-8119244 2623869c-794696,-614524 -1418887,-1466735 -1751137,-2494893 -332278,-1028129 -324851,-2084435 -40082,-3047820l8119245 -2623870c794695,614525 1418886,1466735 1751136,2494893z"/>
   </g>
   <path class="fil2" d="M5949345 299991c1596676,0 3042321,647266 4088649,1693622 1046356,1046327 1693621,2491973 1693621,4088649 0,1596676 -647265,3042321 -1693621,4088649 -1046328,1046356 -2491973,1693621 -4088649,1693621 -1596676,0 -3042322,-647265 -4088649,-1693621 -1046356,-1046328 -1693621,-2491973 -1693621,-4088649 0,-1596676 647265,-3042322 1693621,-4088649 1046327,-1046356 2491973,-1693622 4088649,-1693622zm3928859 1853411c-1005395,-1005480 -2394546,-1627403 -3928859,-1627403 -1534314,0 -2923465,621923 -3928860,1627403 -1005480,1005395 -1627403,2394546 -1627403,3928860 0,1534313 621923,2923464 1627403,3928859 1005395,1005481 2394546,1627404 3928860,1627404 1534313,0 2923464,-621923 3928859,-1627404 1005481,-1005395 1627404,-2394546 1627404,-3928859 0,-1534314 -621923,-2923465 -1627404,-3928860z"/>
   <path class="fil2" d="M4136668 9021430l0 -2022441 1908630 -616339 0 -379929 -2347094 765442 0 2394858 438464 -141591zm1908630 -3110467l0 -378823 -1908630 616339 0 -950998 3293642 -1063562 0 -397674 -3732106 1205465 0 1734667 2347094 -765414zm1385012 -2266278l0 -374656 -4257935 1374978 0 4687838 438436 -141591 0 -4312842 3819499 -1233727zm2384228 3543234l0 -394017 -2903338 932346 0 -2966098 -438436 141591 0 3365331 3341774 -1079153zm0 -485520l0 -378398 -2377453 767738 0 -2501384 -438493 141562 0 2874737 2815946 -904255z"/>
  </g>
 </g>
</svg>
